<mxfile host="app.diagrams.net" modified="2024-08-26T22:32:49.507Z" agent="Mozilla/5.0 (Windows NT 10.0; Win64; x64) AppleWebKit/537.36 (KHTML, like Gecko) Chrome/126.0.0.0 Safari/537.36 OPR/112.0.0.0" etag="aG3NhuKat5_IXexz3hR7" version="24.5.4" type="github">
  <diagram name="PÃ¡gina-1" id="xvm6ddMjzJ4y89bcNbFS">
    <mxGraphModel dx="877" dy="469" grid="1" gridSize="10" guides="1" tooltips="1" connect="1" arrows="1" fold="1" page="1" pageScale="1" pageWidth="1169" pageHeight="827" math="0" shadow="0">
      <root>
        <mxCell id="0" />
        <mxCell id="1" parent="0" />
        <mxCell id="DuFYwMO4WbOh_CWCAp85-6" value="Sistema" style="swimlane;whiteSpace=wrap;html=1;" vertex="1" parent="1">
          <mxGeometry x="160" y="40" width="840" height="830" as="geometry" />
        </mxCell>
        <mxCell id="DuFYwMO4WbOh_CWCAp85-7" value="Participante" style="shape=umlActor;verticalLabelPosition=bottom;verticalAlign=top;html=1;outlineConnect=0;" vertex="1" parent="1">
          <mxGeometry x="60" y="200" width="30" height="60" as="geometry" />
        </mxCell>
        <mxCell id="DuFYwMO4WbOh_CWCAp85-8" value="Leiloeiro" style="shape=umlActor;verticalLabelPosition=bottom;verticalAlign=top;html=1;outlineConnect=0;" vertex="1" parent="1">
          <mxGeometry x="1080" y="200" width="30" height="60" as="geometry" />
        </mxCell>
      </root>
    </mxGraphModel>
  </diagram>
</mxfile>
